<svg width="800" height="500" viewBox="0 0 800 500" xmlns="http://www.w3.org/2000/svg">
  <!-- Background -->
  <rect width="800" height="500" fill="#1e1e2e" rx="8" ry="8"/>
  
  <!-- Header -->
  <rect x="20" y="20" width="760" height="60" fill="#313244" rx="6" ry="6"/>
  <circle cx="50" cy="50" r="15" fill="#8839ef"/>
  <text x="80" y="55" font-family="Arial" font-size="18" fill="#cdd6f4">VisionTrackr Dashboard</text>
  
  <!-- Sidebar -->
  <rect x="20" y="100" width="180" height="380" fill="#313244" rx="6" ry="6"/>
  
  <!-- Sidebar items -->
  <rect x="30" y="120" width="160" height="40" fill="#45475a" rx="4" ry="4"/>
  <text x="65" y="145" font-family="Arial" font-size="14" fill="#cdd6f4">Dashboard</text>
  
  <rect x="30" y="170" width="160" height="40" fill="#313244" rx="4" ry="4"/>
  <text x="65" y="195" font-family="Arial" font-size="14" fill="#cdd6f4">Values</text>
  
  <rect x="30" y="220" width="160" height="40" fill="#313244" rx="4" ry="4"/>
  <text x="65" y="245" font-family="Arial" font-size="14" fill="#cdd6f4">Mission & Purpose</text>
  
  <rect x="30" y="270" width="160" height="40" fill="#313244" rx="4" ry="4"/>
  <text x="65" y="295" font-family="Arial" font-size="14" fill="#cdd6f4">Visions</text>
  
  <rect x="30" y="320" width="160" height="40" fill="#313244" rx="4" ry="4"/>
  <text x="65" y="345" font-family="Arial" font-size="14" fill="#cdd6f4">Goals</text>
  
  <rect x="30" y="370" width="160" height="40" fill="#313244" rx="4" ry="4"/>
  <text x="65" y="395" font-family="Arial" font-size="14" fill="#cdd6f4">Daily Planner</text>
  
  <!-- Main content -->
  <rect x="220" y="100" width="560" height="120" fill="#313244" rx="6" ry="6"/>
  <text x="240" y="130" font-family="Arial" font-size="18" font-weight="bold" fill="#cdd6f4">Welcome back!</text>
  <text x="240" y="160" font-family="Arial" font-size="14" fill="#a6adc8">You have 3 goals in progress and 2 tasks for today.</text>
  <rect x="240" y="180" width="180" height="30" fill="#8839ef" rx="4" ry="4"/>
  <text x="285" y="200" font-family="Arial" font-size="14" fill="white">View Today's Plan</text>
  
  <!-- Stats cards -->
  <rect x="220" y="240" width="270" height="110" fill="#313244" rx="6" ry="6"/>
  <text x="240" y="270" font-family="Arial" font-size="16" fill="#cdd6f4">Goals Progress</text>
  <rect x="240" y="290" width="230" height="15" fill="#45475a" rx="4" ry="4"/>
  <rect x="240" y="290" width="170" height="15" fill="#74c7ec" rx="4" ry="4"/>
  <text x="240" y="320" font-family="Arial" font-size="14" fill="#a6adc8">75% Complete</text>
  
  <rect x="510" y="240" width="270" height="110" fill="#313244" rx="6" ry="6"/>
  <text x="530" y="270" font-family="Arial" font-size="16" fill="#cdd6f4">Daily Tasks</text>
  <rect x="530" y="290" width="230" height="15" fill="#45475a" rx="4" ry="4"/>
  <rect x="530" y="290" width="115" height="15" fill="#a6e3a1" rx="4" ry="4"/>
  <text x="530" y="320" font-family="Arial" font-size="14" fill="#a6adc8">50% Complete</text>
  
  <!-- Calendar/Planner -->
  <rect x="220" y="370" width="560" height="110" fill="#313244" rx="6" ry="6"/>
  <text x="240" y="400" font-family="Arial" font-size="16" fill="#cdd6f4">Weekly Overview</text>
  
  <!-- Calendar days -->
  <rect x="240" y="420" width="70" height="40" fill="#45475a" rx="4" ry="4"/>
  <text x="268" y="444" font-family="Arial" font-size="12" fill="#cdd6f4">Mon</text>
  
  <rect x="320" y="420" width="70" height="40" fill="#8839ef" rx="4" ry="4"/>
  <text x="348" y="444" font-family="Arial" font-size="12" fill="white">Tue</text>
  
  <rect x="400" y="420" width="70" height="40" fill="#45475a" rx="4" ry="4"/>
  <text x="428" y="444" font-family="Arial" font-size="12" fill="#cdd6f4">Wed</text>
  
  <rect x="480" y="420" width="70" height="40" fill="#45475a" rx="4" ry="4"/>
  <text x="508" y="444" font-family="Arial" font-size="12" fill="#cdd6f4">Thu</text>
  
  <rect x="560" y="420" width="70" height="40" fill="#45475a" rx="4" ry="4"/>
  <text x="588" y="444" font-family="Arial" font-size="12" fill="#cdd6f4">Fri</text>
  
  <rect x="640" y="420" width="70" height="40" fill="#45475a" rx="4" ry="4"/>
  <text x="668" y="444" font-family="Arial" font-size="12" fill="#cdd6f4">Sat</text>
</svg> 