<svg width="32" height="32" viewBox="0 0 200 200" xmlns="http://www.w3.org/2000/svg">
  <defs>
    <linearGradient id="heroGradient" x1="0%" y1="0%" x2="100%" y2="100%">
      <stop offset="0%" stopColor="#FBBF24" />
      <stop offset="100%" stopColor="#3B82F6" />
    </linearGradient>
    <radialGradient id="eyeGradient" cx="50%" cy="50%" r="50%" fx="50%" fy="50%">
      <stop offset="0%" stopColor="#1E40AF" />
      <stop offset="100%" stopColor="#1E3A8A" />
    </radialGradient>
    <radialGradient id="pupilGradient" cx="50%" cy="50%" r="50%" fx="75%" fy="25%">
      <stop offset="0%" stopColor="#FCD34D" />
      <stop offset="100%" stopColor="#F59E0B" />
    </radialGradient>
    <filter id="glow" x="-20%" y="-20%" width="140%" height="140%">
      <feGaussianBlur stdDeviation="4" result="blur" />
      <feComposite in="SourceGraphic" in2="blur" operator="over" />
    </filter>
  </defs>
  
  <!-- Stylized eye -->
  <ellipse cx="100" cy="100" rx="65" ry="40" fill="url(#heroGradient)" filter="url(#glow)"/>
  
  <!-- Eyelid -->
  <path d="M35,100 C65,60 135,60 165,100" fill="none" stroke="#3B82F6" strokeWidth="3" opacity="0.7"/>
  <path d="M35,100 C65,140 135,140 165,100" fill="none" stroke="#3B82F6" strokeWidth="3" opacity="0.7"/>
  
  <!-- Iris -->
  <circle cx="100" cy="100" r="24" fill="url(#eyeGradient)"/>
  
  <!-- Pupil with highlight -->
  <circle cx="100" cy="100" r="12" fill="url(#pupilGradient)"/>
  <circle cx="94" cy="94" r="4" fill="white" opacity="0.8"/>
  
  <!-- Outer ring -->
  <path d="M100,30 Q140,50 165,100 Q140,150 100,170 Q60,150 35,100 Q60,50 100,30" fill="none" stroke="#FBBF24" strokeWidth="3" strokeLinecap="round" opacity="0.9"/>
  
  <!-- Compass marks - made more subtle -->
  <circle cx="100" cy="30" r="3" fill="#FBBF24"/>
  <circle cx="35" cy="100" r="3" fill="#FBBF24"/>
  <circle cx="100" cy="170" r="3" fill="#FBBF24"/>
  <circle cx="165" cy="100" r="3" fill="#FBBF24"/>
</svg> 